<svg xmlns="http://www.w3.org/2000/svg" viewBox="0 0 535 120" width="535" height="120" role="img" aria-label="Help Me Breathe">
  <title>Help Me Breathe</title>
  <g transform="translate(0 0) scale(0.27586)"><circle cx="165" cy="270" r="145" fill="none" stroke="#0F1B1E" stroke-width="40"/><path d="M20 270V20" fill="none" stroke="#0F1B1E" stroke-width="40" stroke-linecap="round"/><circle cx="165" cy="270" r="70" fill="none" stroke="#1E5F5A" stroke-width="34"/></g>
  <path transform="translate(119.034 96) scale(0.56)" fill="#0F1B1E" d="M8.85 0V-70.03H18.72V-40.46H56.36V-70H66.23V0H56.36V-31.45H18.72V0Z M102.62 1.2Q95.32 1.2 89.7 -2.15Q84.08 -5.5 80.88 -11.4Q77.68 -17.3 77.68 -25Q77.68 -32.7 80.9 -38.6Q84.12 -44.5 89.76 -47.85Q95.4 -51.2 102.69 -51.2Q109.55 -51.2 114.79 -47.75Q120.03 -44.3 122.98 -37.96Q125.94 -31.63 125.94 -22.96H87.36Q87.86 -15.61 92.31 -11.46Q96.76 -7.31 103.29 -7.31Q108.27 -7.31 111.63 -9.63Q114.99 -11.96 116.86 -15.65L125.11 -11.83Q123.11 -7.89 119.92 -4.95Q116.73 -2 112.39 -0.4Q108.05 1.2 102.62 1.2ZM88.01 -30.52H115.72Q115.42 -34.5 113.56 -37.27Q111.7 -40.03 108.83 -41.5Q105.95 -42.98 102.5 -42.98Q99.15 -42.98 95.94 -41.53Q92.73 -40.08 90.57 -37.29Q88.41 -34.5 88.01 -30.52Z M134.14 0V-70H143.58V0Z M156.14 20V-50H165.01L165.47 -41.87Q168.19 -46.27 172.39 -48.74Q176.59 -51.2 181.98 -51.2Q188.72 -51.2 193.81 -47.92Q198.89 -44.64 201.73 -38.76Q204.58 -32.87 204.58 -25Q204.58 -17.23 201.73 -11.29Q198.89 -5.36 193.81 -2.08Q188.72 1.2 181.98 1.2Q176.62 1.2 172.46 -1.23Q168.31 -3.67 165.58 -7.98V20ZM179.74 -7.41Q184.16 -7.41 187.57 -9.66Q190.97 -11.91 192.94 -15.88Q194.91 -19.85 194.91 -25Q194.91 -30.15 192.99 -34.12Q191.08 -38.09 187.67 -40.32Q184.27 -42.56 179.84 -42.56Q175.69 -42.56 172.45 -40.32Q169.21 -38.09 167.4 -34.12Q165.58 -30.15 165.58 -25Q165.58 -19.85 167.39 -15.87Q169.21 -11.89 172.4 -9.65Q175.6 -7.41 179.74 -7.41Z M239.25 0V-70H249.7L272.87 -35.73L295.98 -70H306.42V0H296.55V-54.24L272.83 -19.06L249.12 -54.1V0Z M342.82 1.2Q335.52 1.2 329.9 -2.15Q324.28 -5.5 321.08 -11.4Q317.88 -17.3 317.88 -25Q317.88 -32.7 321.1 -38.6Q324.32 -44.5 329.96 -47.85Q335.6 -51.2 342.89 -51.2Q349.75 -51.2 354.99 -47.75Q360.23 -44.3 363.18 -37.96Q366.14 -31.63 366.14 -22.96H327.56Q328.06 -15.61 332.51 -11.46Q336.96 -7.31 343.49 -7.31Q348.47 -7.31 351.83 -9.63Q355.19 -11.96 357.06 -15.65L365.31 -11.83Q363.31 -7.89 360.12 -4.95Q356.93 -2 352.59 -0.4Q348.25 1.2 342.82 1.2ZM328.21 -30.52H355.92Q355.62 -34.5 353.76 -37.27Q351.9 -40.03 349.03 -41.5Q346.15 -42.98 342.7 -42.98Q339.35 -42.98 336.14 -41.53Q332.93 -40.08 330.77 -37.29Q328.61 -34.5 328.21 -30.52Z M399.75 0V-70H422.31Q429.47 -70 434.64 -67.8Q439.82 -65.6 442.66 -61.29Q445.5 -56.97 445.5 -50.73Q445.5 -45.89 443.27 -42.14Q441.05 -38.4 436.99 -36.02Q442.16 -33.52 444.95 -29.32Q447.73 -25.13 447.73 -19.3Q447.73 -13.17 444.99 -8.84Q442.24 -4.51 437.22 -2.26Q432.2 0 425.24 0ZM409.48 -8.88H424.61Q430.77 -8.88 434.25 -11.82Q437.73 -14.76 437.73 -19.85Q437.73 -25.36 433.75 -28.43Q429.77 -31.51 422.69 -31.51H409.48ZM409.48 -39.93H423.87Q429.35 -39.93 432.46 -42.82Q435.56 -45.7 435.56 -50.81Q435.56 -56.07 431.96 -58.91Q428.35 -61.76 421.94 -61.76H409.48Z M457.44 0V-50H466.88V-41.03Q469.87 -45.73 474.65 -47.96Q479.44 -50.2 484.58 -50.2V-41.23Q480.09 -41.23 476.04 -39.88Q471.99 -38.53 469.44 -35.44Q466.88 -32.35 466.88 -27.17V0Z M513.22 1.2Q505.92 1.2 500.3 -2.15Q494.68 -5.5 491.48 -11.4Q488.28 -17.3 488.28 -25Q488.28 -32.7 491.5 -38.6Q494.72 -44.5 500.36 -47.85Q506 -51.2 513.29 -51.2Q520.15 -51.2 525.39 -47.75Q530.63 -44.3 533.58 -37.96Q536.54 -31.63 536.54 -22.96H497.96Q498.46 -15.61 502.91 -11.46Q507.36 -7.31 513.89 -7.31Q518.87 -7.31 522.23 -9.63Q525.59 -11.96 527.46 -15.65L535.71 -11.83Q533.71 -7.89 530.52 -4.95Q527.33 -2 522.99 -0.4Q518.65 1.2 513.22 1.2ZM498.61 -30.52H526.32Q526.02 -34.5 524.16 -37.27Q522.3 -40.03 519.43 -41.5Q516.55 -42.98 513.1 -42.98Q509.75 -42.98 506.54 -41.53Q503.33 -40.08 501.17 -37.29Q499.01 -34.5 498.61 -30.52Z M560.68 1.2Q551.78 1.2 546.83 -2.83Q541.88 -6.85 541.88 -14.1Q541.88 -21.79 547.02 -25.86Q552.17 -29.94 561.4 -29.94H574.76Q574.22 -36.31 571.44 -39.57Q568.67 -42.83 563.16 -42.83Q559.28 -42.83 556.45 -41.22Q553.61 -39.62 551.71 -36.25L543.34 -39.41Q545.11 -42.82 547.78 -45.48Q550.46 -48.14 554.26 -49.67Q558.06 -51.2 563.16 -51.2Q570.29 -51.2 575 -48.4Q579.71 -45.61 582.03 -40.28Q584.35 -34.95 584.3 -27.23L584.16 0H575.41L575.05 -6.43Q572.94 -2.77 569.31 -0.78Q565.68 1.2 560.68 1.2ZM561.52 -6.93Q565.56 -6.93 568.6 -8.66Q571.64 -10.4 573.3 -13.53Q574.96 -16.66 574.96 -20.83V-22.38H564.01Q557.15 -22.38 554.31 -20.26Q551.47 -18.14 551.47 -14.29Q551.47 -10.84 554.12 -8.88Q556.77 -6.93 561.52 -6.93Z M614.44 1.2Q606.86 1.2 602.78 -2.67Q598.71 -6.53 598.71 -13.66V-41.78H590.21V-50H598.71V-65.6H608.15V-50H622.45V-41.78H608.15V-15.06Q608.15 -11.41 610.02 -9.46Q611.89 -7.51 615.36 -7.51Q616.45 -7.51 617.61 -7.9Q618.78 -8.3 620.55 -9.51L624.08 -2.07Q621.49 -0.36 619.15 0.42Q616.8 1.2 614.44 1.2Z M632.4 0V-70H641.84V-42.9Q644.34 -46.94 648.24 -49.07Q652.14 -51.2 657.21 -51.2Q663.09 -51.2 667.41 -48.82Q671.73 -46.44 674.11 -41.37Q676.49 -36.3 676.42 -28.1V0H666.98V-25.6Q666.98 -32.35 665.4 -35.95Q663.82 -39.55 661.08 -40.94Q658.33 -42.33 654.79 -42.36Q648.63 -42.42 645.24 -38.13Q641.84 -33.84 641.84 -25.96V0Z M709.32 1.2Q702.02 1.2 696.4 -2.15Q690.78 -5.5 687.58 -11.4Q684.38 -17.3 684.38 -25Q684.38 -32.7 687.6 -38.6Q690.82 -44.5 696.46 -47.85Q702.1 -51.2 709.39 -51.2Q716.25 -51.2 721.49 -47.75Q726.73 -44.3 729.68 -37.96Q732.64 -31.63 732.64 -22.96H694.06Q694.56 -15.61 699.01 -11.46Q703.46 -7.31 709.99 -7.31Q714.97 -7.31 718.33 -9.63Q721.69 -11.96 723.56 -15.65L731.81 -11.83Q729.81 -7.89 726.62 -4.95Q723.43 -2 719.09 -0.4Q714.75 1.2 709.32 1.2ZM694.71 -30.52H722.42Q722.12 -34.5 720.26 -37.27Q718.4 -40.03 715.53 -41.5Q712.65 -42.98 709.2 -42.98Q705.85 -42.98 702.64 -41.53Q699.43 -40.08 697.27 -37.29Q695.11 -34.5 694.71 -30.52Z"/>
</svg>
